<svg xmlns="http://www.w3.org/2000/svg" width="1120" height="720" viewBox="0 0 1120 720" font-family="Inter, Segoe UI, Helvetica, Arial, sans-serif"><defs><marker id="a" viewBox="0 0 10 10" refX="9" refY="5" markerWidth="7" markerHeight="7" orient="auto-start-reverse"><path d="M 0 0 L 10 5 L 0 10 z" fill="#6B7484"/></marker><marker id="ap" viewBox="0 0 10 10" refX="9" refY="5" markerWidth="7" markerHeight="7" orient="auto-start-reverse"><path d="M 0 0 L 10 5 L 0 10 z" fill="#8B5CF6"/></marker></defs><rect x="0" y="0" width="1120" height="720" rx="0" fill="#FFFFFF" stroke="none" opacity="1"/><text x="40" y="46" font-family="Inter, Segoe UI, Helvetica, Arial, sans-serif" font-size="22" font-weight="800" fill="#1F2430" text-anchor="start" letter-spacing="-0.2" opacity="1">Arquitetura da informação</text><text x="40" y="70" font-family="Inter, Segoe UI, Helvetica, Arial, sans-serif" font-size="12.5" font-weight="500" fill="#6B7484" text-anchor="start" letter-spacing="0" opacity="1">Quatro abas fixas e três telas sobrepostas. Cores indicam a prioridade de escopo.</text><rect x="40" y="88" width="67.2" height="18" rx="9" fill="#ECFDF5" stroke="#16A34A" stroke-width="1" opacity="1"/><text x="73.6" y="100.5" font-family="Inter, Segoe UI, Helvetica, Arial, sans-serif" font-size="9" font-weight="800" fill="#16A34A" text-anchor="middle" letter-spacing="0" opacity="1">P0 - MVP</text><rect x="117.2" y="88" width="118.4" height="18" rx="9" fill="#F4F0FE" stroke="#8B5CF6" stroke-width="1" opacity="1"/><text x="176.4" y="100.5" font-family="Inter, Segoe UI, Helvetica, Arial, sans-serif" font-size="9" font-weight="800" fill="#8B5CF6" text-anchor="middle" letter-spacing="0" opacity="1">P1 - diferencial</text><rect x="245.60000000000002" y="88" width="86.4" height="18" rx="9" fill="#F3F5F9" stroke="#6B7484" stroke-width="1" opacity="1"/><text x="288.8" y="100.5" font-family="Inter, Segoe UI, Helvetica, Arial, sans-serif" font-size="9" font-weight="800" fill="#6B7484" text-anchor="middle" letter-spacing="0" opacity="1">P2 - futuro</text><rect x="460" y="126" width="200" height="46" rx="23.0" fill="#1F2430" stroke="#1F2430" stroke-width="1.8" opacity="1"/><text x="560.0" y="146.0" font-family="Inter, Segoe UI, Helvetica, Arial, sans-serif" font-size="12.5" font-weight="800" fill="#FFFFFF" text-anchor="middle" letter-spacing="0" opacity="1">CinePulse</text><text x="560.0" y="163.0" font-family="Inter, Segoe UI, Helvetica, Arial, sans-serif" font-size="10" font-weight="500" fill="#C9D0DA" text-anchor="middle" letter-spacing="0" opacity="1">app shell</text><path d="M 560 172 L 560 200 L 160 200 L 160 226" fill="none" stroke="#6B7484" stroke-width="1.7" stroke-linecap="round" stroke-linejoin="round" marker-end="url(#a)"/><rect x="60" y="226" width="200" height="40" rx="10" fill="#F4F0FE" stroke="#8B5CF6" stroke-width="1.8" opacity="1"/><text x="160.0" y="250.5" font-family="Inter, Segoe UI, Helvetica, Arial, sans-serif" font-size="12.5" font-weight="800" fill="#1F2430" text-anchor="middle" letter-spacing="0" opacity="1">Descobrir</text><line x1="78" y1="266" x2="78" y2="303" stroke="#C9D0DA" stroke-width="1.4" stroke-linecap="round"/><line x1="78" y1="303" x2="90" y2="303" stroke="#C9D0DA" stroke-width="1.4" stroke-linecap="round"/><rect x="90" y="286" width="170" height="34" rx="8" fill="#ECFDF5" stroke="#16A34A" stroke-width="1.3" opacity="1"/><text x="102" y="307" font-family="Inter, Segoe UI, Helvetica, Arial, sans-serif" font-size="11" font-weight="600" fill="#1F2430" text-anchor="start" letter-spacing="0" opacity="1">Busca</text><circle cx="250" cy="303" r="4" fill="#16A34A" stroke="none"/><line x1="78" y1="320" x2="78" y2="349" stroke="#C9D0DA" stroke-width="1.4" stroke-linecap="round"/><line x1="78" y1="349" x2="90" y2="349" stroke="#C9D0DA" stroke-width="1.4" stroke-linecap="round"/><rect x="90" y="332" width="170" height="34" rx="8" fill="#ECFDF5" stroke="#16A34A" stroke-width="1.3" opacity="1"/><text x="102" y="353" font-family="Inter, Segoe UI, Helvetica, Arial, sans-serif" font-size="11" font-weight="600" fill="#1F2430" text-anchor="start" letter-spacing="0" opacity="1">Resultados</text><circle cx="250" cy="349" r="4" fill="#16A34A" stroke="none"/><line x1="78" y1="366" x2="78" y2="395" stroke="#C9D0DA" stroke-width="1.4" stroke-linecap="round"/><line x1="78" y1="395" x2="90" y2="395" stroke="#C9D0DA" stroke-width="1.4" stroke-linecap="round"/><rect x="90" y="378" width="170" height="34" rx="8" fill="#ECFDF5" stroke="#16A34A" stroke-width="1.3" opacity="1"/><text x="102" y="399" font-family="Inter, Segoe UI, Helvetica, Arial, sans-serif" font-size="11" font-weight="600" fill="#1F2430" text-anchor="start" letter-spacing="0" opacity="1">Em alta</text><circle cx="250" cy="395" r="4" fill="#16A34A" stroke="none"/><line x1="78" y1="412" x2="78" y2="441" stroke="#C9D0DA" stroke-width="1.4" stroke-linecap="round"/><line x1="78" y1="441" x2="90" y2="441" stroke="#C9D0DA" stroke-width="1.4" stroke-linecap="round"/><rect x="90" y="424" width="170" height="34" rx="8" fill="#F4F0FE" stroke="#8B5CF6" stroke-width="1.3" opacity="1"/><text x="102" y="445" font-family="Inter, Segoe UI, Helvetica, Arial, sans-serif" font-size="11" font-weight="600" fill="#1F2430" text-anchor="start" letter-spacing="0" opacity="1">Filtro por MoodTag</text><circle cx="250" cy="441" r="4" fill="#8B5CF6" stroke="none"/><line x1="78" y1="458" x2="78" y2="487" stroke="#C9D0DA" stroke-width="1.4" stroke-linecap="round"/><line x1="78" y1="487" x2="90" y2="487" stroke="#C9D0DA" stroke-width="1.4" stroke-linecap="round"/><rect x="90" y="470" width="170" height="34" rx="8" fill="#F4F0FE" stroke="#8B5CF6" stroke-width="1.3" opacity="1"/><text x="102" y="491" font-family="Inter, Segoe UI, Helvetica, Arial, sans-serif" font-size="11" font-weight="600" fill="#1F2430" text-anchor="start" letter-spacing="0" opacity="1">Feed de amigos</text><circle cx="250" cy="487" r="4" fill="#8B5CF6" stroke="none"/><path d="M 560 172 L 560 200 L 420 200 L 420 226" fill="none" stroke="#6B7484" stroke-width="1.7" stroke-linecap="round" stroke-linejoin="round" marker-end="url(#a)"/><rect x="320" y="226" width="200" height="40" rx="10" fill="#F4F0FE" stroke="#8B5CF6" stroke-width="1.8" opacity="1"/><text x="420.0" y="250.5" font-family="Inter, Segoe UI, Helvetica, Arial, sans-serif" font-size="12.5" font-weight="800" fill="#1F2430" text-anchor="middle" letter-spacing="0" opacity="1">Diário</text><line x1="338" y1="266" x2="338" y2="303" stroke="#C9D0DA" stroke-width="1.4" stroke-linecap="round"/><line x1="338" y1="303" x2="350" y2="303" stroke="#C9D0DA" stroke-width="1.4" stroke-linecap="round"/><rect x="350" y="286" width="170" height="34" rx="8" fill="#ECFDF5" stroke="#16A34A" stroke-width="1.3" opacity="1"/><text x="362" y="307" font-family="Inter, Segoe UI, Helvetica, Arial, sans-serif" font-size="11" font-weight="600" fill="#1F2430" text-anchor="start" letter-spacing="0" opacity="1">Linha do tempo</text><circle cx="510" cy="303" r="4" fill="#16A34A" stroke="none"/><line x1="338" y1="320" x2="338" y2="349" stroke="#C9D0DA" stroke-width="1.4" stroke-linecap="round"/><line x1="338" y1="349" x2="350" y2="349" stroke="#C9D0DA" stroke-width="1.4" stroke-linecap="round"/><rect x="350" y="332" width="170" height="34" rx="8" fill="#ECFDF5" stroke="#16A34A" stroke-width="1.3" opacity="1"/><text x="362" y="353" font-family="Inter, Segoe UI, Helvetica, Arial, sans-serif" font-size="11" font-weight="600" fill="#1F2430" text-anchor="start" letter-spacing="0" opacity="1">Estatísticas do mês</text><circle cx="510" cy="349" r="4" fill="#16A34A" stroke="none"/><line x1="338" y1="366" x2="338" y2="395" stroke="#C9D0DA" stroke-width="1.4" stroke-linecap="round"/><line x1="338" y1="395" x2="350" y2="395" stroke="#C9D0DA" stroke-width="1.4" stroke-linecap="round"/><rect x="350" y="378" width="170" height="34" rx="8" fill="#ECFDF5" stroke="#16A34A" stroke-width="1.3" opacity="1"/><text x="362" y="399" font-family="Inter, Segoe UI, Helvetica, Arial, sans-serif" font-size="11" font-weight="600" fill="#1F2430" text-anchor="start" letter-spacing="0" opacity="1">Editar registro</text><circle cx="510" cy="395" r="4" fill="#16A34A" stroke="none"/><line x1="338" y1="412" x2="338" y2="441" stroke="#C9D0DA" stroke-width="1.4" stroke-linecap="round"/><line x1="338" y1="441" x2="350" y2="441" stroke="#C9D0DA" stroke-width="1.4" stroke-linecap="round"/><rect x="350" y="424" width="170" height="34" rx="8" fill="#F3F5F9" stroke="#6B7484" stroke-width="1.3" opacity="1"/><text x="362" y="445" font-family="Inter, Segoe UI, Helvetica, Arial, sans-serif" font-size="11" font-weight="600" fill="#1F2430" text-anchor="start" letter-spacing="0" opacity="1">Estatísticas avançadas</text><circle cx="510" cy="441" r="4" fill="#6B7484" stroke="none"/><path d="M 560 172 L 560 200 L 680 200 L 680 226" fill="none" stroke="#6B7484" stroke-width="1.7" stroke-linecap="round" stroke-linejoin="round" marker-end="url(#a)"/><rect x="580" y="226" width="200" height="40" rx="10" fill="#F4F0FE" stroke="#8B5CF6" stroke-width="1.8" opacity="1"/><text x="680.0" y="250.5" font-family="Inter, Segoe UI, Helvetica, Arial, sans-serif" font-size="12.5" font-weight="800" fill="#1F2430" text-anchor="middle" letter-spacing="0" opacity="1">Listas</text><line x1="598" y1="266" x2="598" y2="303" stroke="#C9D0DA" stroke-width="1.4" stroke-linecap="round"/><line x1="598" y1="303" x2="610" y2="303" stroke="#C9D0DA" stroke-width="1.4" stroke-linecap="round"/><rect x="610" y="286" width="170" height="34" rx="8" fill="#ECFDF5" stroke="#16A34A" stroke-width="1.3" opacity="1"/><text x="622" y="307" font-family="Inter, Segoe UI, Helvetica, Arial, sans-serif" font-size="11" font-weight="600" fill="#1F2430" text-anchor="start" letter-spacing="0" opacity="1">Watchlist</text><circle cx="770" cy="303" r="4" fill="#16A34A" stroke="none"/><line x1="598" y1="320" x2="598" y2="349" stroke="#C9D0DA" stroke-width="1.4" stroke-linecap="round"/><line x1="598" y1="349" x2="610" y2="349" stroke="#C9D0DA" stroke-width="1.4" stroke-linecap="round"/><rect x="610" y="332" width="170" height="34" rx="8" fill="#ECFDF5" stroke="#16A34A" stroke-width="1.3" opacity="1"/><text x="622" y="353" font-family="Inter, Segoe UI, Helvetica, Arial, sans-serif" font-size="11" font-weight="600" fill="#1F2430" text-anchor="start" letter-spacing="0" opacity="1">Listas próprias</text><circle cx="770" cy="349" r="4" fill="#16A34A" stroke="none"/><line x1="598" y1="366" x2="598" y2="395" stroke="#C9D0DA" stroke-width="1.4" stroke-linecap="round"/><line x1="598" y1="395" x2="610" y2="395" stroke="#C9D0DA" stroke-width="1.4" stroke-linecap="round"/><rect x="610" y="378" width="170" height="34" rx="8" fill="#F3F5F9" stroke="#6B7484" stroke-width="1.3" opacity="1"/><text x="622" y="399" font-family="Inter, Segoe UI, Helvetica, Arial, sans-serif" font-size="11" font-weight="600" fill="#1F2430" text-anchor="start" letter-spacing="0" opacity="1">Listas colaborativas</text><circle cx="770" cy="395" r="4" fill="#6B7484" stroke="none"/><line x1="598" y1="412" x2="598" y2="441" stroke="#C9D0DA" stroke-width="1.4" stroke-linecap="round"/><line x1="598" y1="441" x2="610" y2="441" stroke="#C9D0DA" stroke-width="1.4" stroke-linecap="round"/><rect x="610" y="424" width="170" height="34" rx="8" fill="#F3F5F9" stroke="#6B7484" stroke-width="1.3" opacity="1"/><text x="622" y="445" font-family="Inter, Segoe UI, Helvetica, Arial, sans-serif" font-size="11" font-weight="600" fill="#1F2430" text-anchor="start" letter-spacing="0" opacity="1">Onde assistir</text><circle cx="770" cy="441" r="4" fill="#6B7484" stroke="none"/><path d="M 560 172 L 560 200 L 940 200 L 940 226" fill="none" stroke="#6B7484" stroke-width="1.7" stroke-linecap="round" stroke-linejoin="round" marker-end="url(#a)"/><rect x="840" y="226" width="200" height="40" rx="10" fill="#F4F0FE" stroke="#8B5CF6" stroke-width="1.8" opacity="1"/><text x="940.0" y="250.5" font-family="Inter, Segoe UI, Helvetica, Arial, sans-serif" font-size="12.5" font-weight="800" fill="#1F2430" text-anchor="middle" letter-spacing="0" opacity="1">Perfil</text><line x1="858" y1="266" x2="858" y2="303" stroke="#C9D0DA" stroke-width="1.4" stroke-linecap="round"/><line x1="858" y1="303" x2="870" y2="303" stroke="#C9D0DA" stroke-width="1.4" stroke-linecap="round"/><rect x="870" y="286" width="170" height="34" rx="8" fill="#ECFDF5" stroke="#16A34A" stroke-width="1.3" opacity="1"/><text x="882" y="307" font-family="Inter, Segoe UI, Helvetica, Arial, sans-serif" font-size="11" font-weight="600" fill="#1F2430" text-anchor="start" letter-spacing="0" opacity="1">Histórico</text><circle cx="1030" cy="303" r="4" fill="#16A34A" stroke="none"/><line x1="858" y1="320" x2="858" y2="349" stroke="#C9D0DA" stroke-width="1.4" stroke-linecap="round"/><line x1="858" y1="349" x2="870" y2="349" stroke="#C9D0DA" stroke-width="1.4" stroke-linecap="round"/><rect x="870" y="332" width="170" height="34" rx="8" fill="#F4F0FE" stroke="#8B5CF6" stroke-width="1.3" opacity="1"/><text x="882" y="353" font-family="Inter, Segoe UI, Helvetica, Arial, sans-serif" font-size="11" font-weight="600" fill="#1F2430" text-anchor="start" letter-spacing="0" opacity="1">Mapa de gosto</text><circle cx="1030" cy="349" r="4" fill="#8B5CF6" stroke="none"/><line x1="858" y1="366" x2="858" y2="395" stroke="#C9D0DA" stroke-width="1.4" stroke-linecap="round"/><line x1="858" y1="395" x2="870" y2="395" stroke="#C9D0DA" stroke-width="1.4" stroke-linecap="round"/><rect x="870" y="378" width="170" height="34" rx="8" fill="#F4F0FE" stroke="#8B5CF6" stroke-width="1.3" opacity="1"/><text x="882" y="399" font-family="Inter, Segoe UI, Helvetica, Arial, sans-serif" font-size="11" font-weight="600" fill="#1F2430" text-anchor="start" letter-spacing="0" opacity="1">PulseMatch</text><circle cx="1030" cy="395" r="4" fill="#8B5CF6" stroke="none"/><line x1="858" y1="412" x2="858" y2="441" stroke="#C9D0DA" stroke-width="1.4" stroke-linecap="round"/><line x1="858" y1="441" x2="870" y2="441" stroke="#C9D0DA" stroke-width="1.4" stroke-linecap="round"/><rect x="870" y="424" width="170" height="34" rx="8" fill="#F4F0FE" stroke="#8B5CF6" stroke-width="1.3" opacity="1"/><text x="882" y="445" font-family="Inter, Segoe UI, Helvetica, Arial, sans-serif" font-size="11" font-weight="600" fill="#1F2430" text-anchor="start" letter-spacing="0" opacity="1">Seguir pessoas</text><circle cx="1030" cy="441" r="4" fill="#8B5CF6" stroke="none"/><line x1="858" y1="458" x2="858" y2="487" stroke="#C9D0DA" stroke-width="1.4" stroke-linecap="round"/><line x1="858" y1="487" x2="870" y2="487" stroke="#C9D0DA" stroke-width="1.4" stroke-linecap="round"/><rect x="870" y="470" width="170" height="34" rx="8" fill="#F3F5F9" stroke="#6B7484" stroke-width="1.3" opacity="1"/><text x="882" y="491" font-family="Inter, Segoe UI, Helvetica, Arial, sans-serif" font-size="11" font-weight="600" fill="#1F2430" text-anchor="start" letter-spacing="0" opacity="1">Conquistas</text><circle cx="1030" cy="487" r="4" fill="#6B7484" stroke="none"/><rect x="40" y="546" width="1040" height="1" rx="0" fill="#E5EAF1" stroke="none" opacity="1"/><text x="40" y="582" font-family="Inter, Segoe UI, Helvetica, Arial, sans-serif" font-size="13" font-weight="800" fill="#1F2430" text-anchor="start" letter-spacing="0" opacity="1">Telas sobrepostas (não ocupam aba própria)</text><rect x="40" y="600" width="320" height="56" rx="10" fill="#ECFDF5" stroke="#16A34A" stroke-width="1.4" stroke-dasharray="5 4" opacity="1"/><text x="56" y="624" font-family="Inter, Segoe UI, Helvetica, Arial, sans-serif" font-size="12.5" font-weight="800" fill="#1F2430" text-anchor="start" letter-spacing="0" opacity="1">Detalhe do título</text><text x="56" y="642" font-family="Inter, Segoe UI, Helvetica, Arial, sans-serif" font-size="10.5" font-weight="500" fill="#6B7484" text-anchor="start" letter-spacing="0" opacity="1">aberto a partir de qualquer lista</text><rect x="390" y="600" width="320" height="56" rx="10" fill="#ECFDF5" stroke="#16A34A" stroke-width="1.4" stroke-dasharray="5 4" opacity="1"/><text x="406" y="624" font-family="Inter, Segoe UI, Helvetica, Arial, sans-serif" font-size="12.5" font-weight="800" fill="#1F2430" text-anchor="start" letter-spacing="0" opacity="1">Avaliação rápida</text><text x="406" y="642" font-family="Inter, Segoe UI, Helvetica, Arial, sans-serif" font-size="10.5" font-weight="500" fill="#6B7484" text-anchor="start" letter-spacing="0" opacity="1">bottom sheet sobre o detalhe</text><rect x="740" y="600" width="320" height="56" rx="10" fill="#ECFDF5" stroke="#16A34A" stroke-width="1.4" stroke-dasharray="5 4" opacity="1"/><text x="756" y="624" font-family="Inter, Segoe UI, Helvetica, Arial, sans-serif" font-size="12.5" font-weight="800" fill="#1F2430" text-anchor="start" letter-spacing="0" opacity="1">Editor de review</text><text x="756" y="642" font-family="Inter, Segoe UI, Helvetica, Arial, sans-serif" font-size="10.5" font-weight="500" fill="#6B7484" text-anchor="start" letter-spacing="0" opacity="1">tela cheia, sai da avaliação</text><text x="40" y="692" font-family="Inter, Segoe UI, Helvetica, Arial, sans-serif" font-size="11" font-weight="700" fill="#8B5CF6" text-anchor="start" letter-spacing="0" opacity="1">Regra: nenhuma tarefa do MVP exige mais de três níveis de profundidade a partir de uma aba.</text></svg>